#N canvas 1103 186 607 362 12;
#X msg 92 250 disconnect;
#X obj 62 279 netsend -u -b;
#X obj 79 200 loadbang;
#X text 173 280 send as UDP \, binary;
#X obj 62 166 oscformat bla;
#X msg 79 224 connect localhost 12000;
#X text 174 164 create an osc message to be send to /bla;
#X text 266 223 connect to the OSC receiver on this machine;
#X text 186 250 press here to disconnect;
#X msg 112 44 10;
#X msg 104 113 -2;
#X msg 59 82 1;
#X connect 0 0 1 0;
#X connect 2 0 5 0;
#X connect 4 0 1 0;
#X connect 5 0 1 0;
#X connect 9 0 4 0;
#X connect 10 0 4 0;
#X connect 11 0 4 0;
