#N canvas 940 117 681 672 12;
#X msg 72 434 disconnect;
#X obj 42 463 netsend -u -b;
#X obj 59 384 loadbang;
#X text 153 464 send as UDP \, binary;
#X obj 42 350 oscformat bla;
#X msg 59 408 connect localhost 12000;
#X obj 42 262 snapshot~;
#X obj 51 190 loadbang;
#X obj 51 213 tgl 19 0 empty empty empty 0 -10 0 12 #fcfcfc #000000 #000000 0 1;
#X floatatom 42 308 5 0 0 0 - - - 0;
#X obj 42 140 osc~ 1;
#X text 104 139 create a 1Hz sine signal;
#X obj 51 236 metro 50 0 persec;
#X text 106 159 note: make sure DSP is ON;
#X text 124 190 start the metronome on loading the script;
#X text 124 265 sample the sine at 50Hz note: this turns the signal into a single value;
#X text 154 348 create an osc message to be send to /bla;
#X text 246 407 connect to the OSC receiver on this machine;
#X text 166 434 press here to disconnect;
#X obj 45 77 hsl 162 19 0 100 0 0 empty empty empty -2 -10 0 12 #fcfcfc #000000 #000000 0 1;
#X obj 42 101 / 50;
#X connect 0 0 1 0;
#X connect 2 0 5 0;
#X connect 4 0 1 0;
#X connect 5 0 1 0;
#X connect 6 0 9 0;
#X connect 7 0 8 0;
#X connect 8 0 12 0;
#X connect 9 0 4 0;
#X connect 10 0 6 0;
#X connect 12 0 6 0;
#X connect 19 0 20 0;
#X connect 20 0 10 0;
